Coordinates
version=1
nRows=17
nColumns=40
inDegrees=yes

Units are S.I. units (second, meters, Newtons, ...)
Angles are in degrees.

endheader
time	pelvis_tilt	pelvis_list	pelvis_rotation	pelvis_tx	pelvis_ty	pelvis_tz	hip_flexion_r	hip_adduction_r	hip_rotation_r	knee_angle_r	knee_angle_r_beta	ankle_angle_r	subtalar_angle_r	mtp_angle_r	hip_flexion_l	hip_adduction_l	hip_rotation_l	knee_angle_l	knee_angle_l_beta	ankle_angle_l	subtalar_angle_l	mtp_angle_l	lumbar_extension	lumbar_bending	lumbar_rotation	arm_flex_r	arm_add_r	arm_rot_r	elbow_flex_r	pro_sup_r	wrist_flex_r	wrist_dev_r	arm_flex_l	arm_add_l	arm_rot_l	elbow_flex_l	pro_sup_l	wrist_flex_l	wrist_dev_l
      0.86000000	      3.34487984	      0.63485084	     -3.11045383	     -0.58738332	      0.89655835	      0.96714246	     22.47087170	     -2.80134739	    -10.39922441	    -36.91244441	     -0.64424369	      2.57163121	     -9.68591510	      6.28587933	     -5.75623875	     -4.50975018	     13.50918575	    -12.14233694	     -0.21192376	      9.88971661	     -7.23351303	     -4.20652245	    -11.59042461	      0.77914285	     -3.33780084	      7.48313532	     -9.53635909	     15.74850472	     15.81063990	     89.95437384	      0.00000000	      0.00000000	     16.99322113	     13.68159874	    -16.84734857	     25.66357465	     89.95437384	      0.00000000	      0.00000000
      0.87000000	      3.10841544	      0.85059625	     -3.17009441	     -0.58113484	      0.89545210	      0.96732107	     23.20844060	     -2.98252495	    -10.90784171	    -35.42654117	     -0.61830979	      2.38007686	     -9.16640100	      6.22039353	     -5.93392347	     -4.75783279	     13.55078418	    -12.16110688	     -0.21225136	     10.10555873	     -7.24049861	     -4.20865832	    -11.38154400	      0.58523126	     -3.27130477	      7.30503735	     -9.46582073	     15.70874753	     15.84536646	     89.95437384	      0.00000000	      0.00000000	     17.37003531	     13.75774114	    -16.73868959	     26.19422661	     89.95437384	      0.00000000	      0.00000000
      0.88000000	      3.43489425	      0.53766768	     -2.94434696	     -0.57444132	      0.89550787	      0.96743310	     22.85208063	     -2.73704574	    -11.96361357	    -33.28341559	     -0.58090519	      1.27612312	     -7.45630789	      5.94365409	     -6.84735662	     -4.39847961	     13.38337223	    -12.08619495	     -0.21094390	     10.44523317	     -7.43082431	     -4.18748986	    -11.83234824	      0.99145185	     -3.56228303	      7.29513945	     -9.33119471	     15.46017828	     15.80432413	     89.95437384	      0.00000000	      0.00000000	     17.60479916	     13.88860162	    -16.49355311	     26.90456748	     89.95437384	      0.00000000	      0.00000000
      0.89000000	      3.27975496	      0.67165227	     -2.95023753	     -0.56810720	      0.89455275	      0.96768653	     23.34120198	     -2.83975063	    -12.58230883	    -31.63563965	     -0.55214607	      0.45921059	     -6.55760314	      5.81084844	     -7.12978553	     -4.55818104	     13.23563356	    -12.10419349	     -0.21125803	     10.50067663	     -7.59103990	     -4.17423679	    -11.74120697	      0.88161336	     -3.57249254	      7.14934345	     -9.23333066	     15.35940501	     15.87057373	     89.95437384	      0.00000000	      0.00000000	     17.89513638	     13.95240803	    -16.33389383	     27.46360035	     89.95437384	      0.00000000	      0.00000000
      0.90000000	      3.07235857	      0.90490797	     -3.06885984	     -0.56152800	      0.89336204	      0.96805218	     24.01108674	     -3.03836714	    -13.29008079	    -30.36608405	     -0.52998815	      0.18391711	     -6.28124118	      5.79766075	     -7.35544024	     -4.81863829	     13.35151613	    -12.11921074	     -0.21152013	     10.70369450	     -7.58670184	     -4.18695245	    -11.52905466	      0.65865660	     -3.41322474	      6.96597418	     -9.12314252	     15.36190575	     15.78646384	     89.95437384	      0.00000000	      0.00000000	     18.16593867	     13.92769837	    -16.24037754	     27.86141910	     89.95437384	      0.00000000	      0.00000000
      0.91000000	      3.13855447	      0.68849168	     -2.82328189	     -0.55479133	      0.89291942	      0.96832628	     23.90660004	     -2.81966249	    -14.27055847	    -28.35573045	     -0.49490086	     -1.69429524	     -5.03509038	      5.78984856	     -7.82427629	     -4.50711823	     13.06657378	    -12.34459753	     -0.21545387	     10.98472526	     -7.77633111	     -4.24737762	    -11.70293225	      0.95162923	     -3.68694416	      6.88391753	     -8.98873607	     15.23864033	     15.79237695	     89.95437384	      0.00000000	      0.00000000	     18.28696301	     13.99837381	    -16.00963086	     28.47225851	     89.95437384	      0.00000000	      0.00000000
      0.92000000	      2.95656440	      0.88080498	     -2.92300864	     -0.54807057	      0.89182009	      0.96882340	     24.45797932	     -2.96887253	    -15.08064628	    -27.18243680	     -0.47442302	     -1.85066013	     -4.83555700	      5.76888369	     -8.06483770	     -4.70131381	     13.20411171	    -12.41771670	     -0.21673004	     11.15308188	     -7.76875399	     -4.26361273	    -11.52949517	      0.76690320	     -3.54206078	      6.71478628	     -8.86597630	     15.25276669	     15.71840698	     89.95437384	      0.00000000	      0.00000000	     18.49525630	     13.92270254	    -15.90690081	     28.79764088	     89.95437384	      0.00000000	      0.00000000
      0.93000000	      3.16357720	      0.40430348	     -2.54448479	     -0.54111165	      0.89169183	      0.96918142	     23.95067832	     -2.54279614	    -16.63255007	    -25.11316198	     -0.43830736	     -2.98747817	     -3.40474620	      5.54969971	     -8.63209419	     -4.02513271	     13.02363931	    -12.80571063	     -0.22350181	     11.44389164	     -8.06196195	     -4.37212761	    -11.87487054	      1.35832975	     -3.86447845	      6.65170231	     -8.75259630	     15.12659343	     15.72106074	     89.95437384	      0.00000000	      0.00000000	     18.56208352	     13.85130584	    -15.45656865	     29.30354237	     89.95437384	      0.00000000	      0.00000000
      0.94000000	      2.94591831	      0.62302950	     -2.63844069	     -0.53426637	      0.89060122	      0.96972959	     24.44754264	     -2.66925755	    -17.29100876	    -24.07929796	     -0.42026303	     -2.70129118	     -3.21478994	      5.45441096	     -8.82978119	     -4.24474064	     13.13043365	    -12.88442626	     -0.22487566	     11.54772253	     -8.08418414	     -4.38990883	    -11.67121989	      1.14835906	     -3.73102184	      6.45660876	     -8.63816572	     15.14727509	     15.68193339	     89.95437384	      0.00000000	      0.00000000	     18.67621378	     13.75657601	    -15.36423573	     29.57879976	     89.95437384	      0.00000000	      0.00000000
      0.95000000	      2.84327588	      0.38170511	     -2.32060199	     -0.52731771	      0.88998046	      0.97023657	     24.27438033	     -2.29770760	    -18.03008814	    -22.28891778	     -0.38901500	     -2.30737339	     -1.96220770	      5.10531727	     -8.99189000	     -3.80478799	     12.86925318	    -13.35060765	     -0.23301206	     11.67370017	     -8.30330094	     -4.46082084	    -11.63978006	      1.48340997	     -4.04289463	      6.30930410	     -8.51869401	     15.11418736	     15.79026101	     89.95437384	      0.00000000	      0.00000000	     18.62527569	     13.70242879	    -15.06900283	     29.97475346	     89.95437384	      0.00000000	      0.00000000
      0.96000000	      3.29471238	      0.03410708	     -2.07361112	     -0.51957895	      0.89013636	      0.97073278	     23.58631849	     -2.13289917	    -19.96734695	    -21.07761174	     -0.36787372	     -2.08667864	      0.08461708	      4.12929235	    -10.00331590	     -3.25345349	     13.14577670	    -13.47293019	     -0.23514699	     11.61334743	     -9.21153693	     -4.65083927	    -12.16483767	      1.92589585	     -4.14986513	      6.18365637	     -8.46366898	     15.14474961	     15.74804442	     89.95437384	      0.00000000	      0.00000000	     18.58440708	     13.45000931	    -14.44065060	     30.34931761	     89.95437384	      0.00000000	      0.00000000
      0.97000000	      3.02930551	      0.24363316	     -2.15930597	     -0.51254505	      0.88905346	      0.97163130	     24.07287724	     -2.21489524	    -20.33843397	    -20.48023346	     -0.35744751	     -1.87109769	      0.11205464	      4.05086007	    -10.12774505	     -3.40558097	     13.11890308	    -13.61111089	     -0.23755870	     11.63753604	     -9.16967503	     -4.64660189	    -11.92185405	      1.69612239	     -3.99391937	      5.96452482	     -8.33810481	     15.17244386	     15.74726190	     89.95437384	      0.00000000	      0.00000000	     18.56837631	     13.33627133	    -14.41147235	     30.54852752	     89.95437384	      0.00000000	      0.00000000
      0.98000000	      2.75823164	      0.38903741	     -2.10533380	     -0.50516475	      0.88803709	      0.97214649	     24.39628335	     -2.27284198	    -20.59953870	    -19.82684003	     -0.34604364	     -1.70837459	      0.26296302	      3.95849740	    -10.25437028	     -3.48935036	     13.00408757	    -13.79814016	     -0.24082298	     11.66748589	     -9.15833282	     -4.65179406	    -11.61673042	      1.61134083	     -3.94367906	      5.71515201	     -8.27187442	     15.18361996	     15.72334807	     89.95437384	      0.00000000	      0.00000000	     18.44296492	     13.15263818	    -14.39614825	     30.73852016	     89.95437384	      0.00000000	      0.00000000
      0.99000000	      2.99943072	     -0.20422044	     -1.50331146	     -0.49724073	      0.88807066	      0.97250899	     23.50669251	     -1.71636786	    -21.73879899	    -18.42569933	     -0.32158912	     -1.95730306	      1.94599800	      2.93690243	    -10.82161635	     -2.54929796	     12.79755079	    -14.32932402	     -0.25009388	     11.69072651	     -9.88510081	     -4.90812621	    -11.90409843	      2.39621867	     -4.42423439	      5.57332044	     -8.22285347	     15.10756171	     15.75846025	     89.95437384	      0.00000000	      0.00000000	     18.16896906	     12.92229681	    -13.93004875	     31.05728398	     89.95437384	      0.00000000	      0.00000000
      1.00000000	      2.72361464	     -0.10237704	     -1.40988774	     -0.48967586	      0.88706510	      0.97327844	     23.75691279	     -1.73486541	    -21.68195636	    -18.14591883	     -0.31670603	     -1.82253583	      2.05851155	      2.79003526	    -10.93134781	     -2.54673811	     12.62715050	    -14.53736225	     -0.25372484	     11.66424940	     -9.85764796	     -4.91116963	    -11.60260439	      2.33054940	     -4.42773808	      5.33842853	     -8.13515680	     15.11991131	     15.74055280	     89.95437384	      0.00000000	      0.00000000	     17.97419158	     12.76329179	    -13.94698436	     31.16617139	     89.95437384	      0.00000000	      0.00000000
      1.01000000	      2.56889173	     -0.24848856	     -1.09807416	     -0.48177243	      0.88629700	      0.97387192	     23.62323460	     -1.50553320	    -21.44558445	    -17.77258313	     -0.31019009	     -1.59796529	      2.54350219	      2.39467706	    -11.09746696	     -2.21996729	     12.18116113	    -14.97765186	     -0.26140934	     11.71642409	    -10.01527329	     -5.01723114	    -11.39421399	      2.57910040	     -4.61415141	      5.13053727	     -8.06402130	     15.11675152	     15.67295124	     89.95437384	      0.00000000	      0.00000000	     17.69839038	     12.55715655	    -13.94629766	     31.25060103	     89.95437384	      0.00000000	      0.00000000
      1.02000000	      2.37393222	     -0.19374620	     -0.88514203	     -0.47365992	      0.88541163	      0.97447963	     23.62940875	     -1.54506472	    -21.26669091	    -17.86309022	     -0.31176974	     -1.56790544	      2.57510106	      2.23944609	    -11.24865696	     -2.13492523	     12.05592483	    -15.33621075	     -0.26766737	     11.65029435	     -9.88596606	     -5.00752384	    -11.11906001	      2.59926302	     -4.69833179	      4.84048358	     -8.02952653	     15.09790319	     15.69081255	     89.95437384	      0.00000000	      0.00000000	     17.36924548	     12.33365385	    -13.95352117	     31.31378199	     89.95437384	      0.00000000	      0.00000000
